<svg xmlns="http://www.w3.org/2000/svg" viewBox="0 0 23 28"><defs><style>.cls-1{fill:#676767;}.cls-1,.cls-2{fill-rule:evenodd;}.cls-2{fill:#d85450;}</style></defs><title>Asset 1</title><g id="Layer_2" data-name="Layer 2"><g id="Layer_1-2" data-name="Layer 1"><g id="Page-1"><g id="File-Representations"><g id="Group-Copy-2"><g id="Mask"><path class="cls-1" d="M22.64,8.31a4.35,4.35,0,0,0-.86-1.38L16.17,1.24A4.26,4.26,0,0,0,14.81.36,4.19,4.19,0,0,0,13.23,0H1.72A1.67,1.67,0,0,0,.5.51,1.71,1.71,0,0,0,0,1.75v24.5a1.71,1.71,0,0,0,.5,1.24A1.67,1.67,0,0,0,1.72,28H21.28a1.67,1.67,0,0,0,1.22-.51,1.71,1.71,0,0,0,.5-1.24V9.92a4.29,4.29,0,0,0-.36-1.61ZM13.8,2.48a1.92,1.92,0,0,1,.74.4l5.62,5.71a2,2,0,0,1,.4.74H13.8V2.48Zm6.9,23.19H2.3V2.33h9.2V9.92a1.73,1.73,0,0,0,.5,1.24,1.68,1.68,0,0,0,1.23.51H20.7v14Z"/></g><path class="cls-2" d="M14.45,16.09a5.43,5.43,0,0,0-2-2,5.33,5.33,0,0,0-2.74-.73A5.3,5.3,0,0,0,7,14.1a5.43,5.43,0,0,0-2,2,5.51,5.51,0,0,0,0,5.48,5.43,5.43,0,0,0,2,2,5.44,5.44,0,0,0,5.48,0,5.43,5.43,0,0,0,2-2,5.51,5.51,0,0,0,0-5.48Zm-1.38,4.68a3.81,3.81,0,0,1-1.41,1.41,3.88,3.88,0,0,1-3.88,0,3.67,3.67,0,0,1-1.41-1.41,3.88,3.88,0,0,1,0-3.88,3.87,3.87,0,0,1,5.29-1.41,4,4,0,0,1,1.41,1.41,3.88,3.88,0,0,1,0,3.88Zm-.94-3.08a.21.21,0,0,0-.07-.16l-1-1a.26.26,0,0,0-.16-.07.26.26,0,0,0-.17.07l-1,1-1-1a.22.22,0,0,0-.32,0l-1,1a.21.21,0,0,0-.07.16.22.22,0,0,0,.07.17l1,1-1,1a.22.22,0,0,0,0,.32l1,1a.22.22,0,0,0,.32,0l1-1,1,1a.22.22,0,0,0,.17.07.21.21,0,0,0,.16-.07l1-1a.22.22,0,0,0,0-.32l-1-1,1-1a.22.22,0,0,0,.07-.17Z"/></g></g></g></g></g></svg>